HIERARCHY
ROOT joint_Root
{
	OFFSET 0.0 0.0 0.0
	CHANNELS 6 Xposition Yposition Zposition Zrotation Xrotation Yrotation 
	JOINT Hips
	{
		OFFSET 4.5925 91.4895 -427.239
		CHANNELS 6 Xposition Yposition Zposition Zrotation Xrotation Yrotation 
		JOINT Spine
		{
			OFFSET 15.7357 0.0 0.0
			CHANNELS 6 Xposition Yposition Zposition Zrotation Xrotation Yrotation 
			JOINT Chest
			{
				OFFSET 8.98455 -0.406207 0.0
				CHANNELS 6 Xposition Yposition Zposition Zrotation Xrotation Yrotation 
				JOINT Neck
				{
					OFFSET 16.3773 0.0 0.0
					CHANNELS 6 Xposition Yposition Zposition Zrotation Xrotation Yrotation 
					JOINT Head
					{
						OFFSET 6.45672 0.0 0.0
						CHANNELS 6 Xposition Yposition Zposition Zrotation Xrotation Yrotation 
						End Site
						{
							OFFSET 0.0 0.0 0.0
						}
					}
				}
				JOINT Shoulder_L
				{
					OFFSET 12.9942 -0.242716 4.98039
					CHANNELS 6 Xposition Yposition Zposition Zrotation Xrotation Yrotation 
					JOINT UpperArm_L
					{
						OFFSET 5.34809 0.0 0.0
						CHANNELS 6 Xposition Yposition Zposition Zrotation Xrotation Yrotation 
						JOINT LowerArm_L
						{
							OFFSET 24.3286 1.87007e-05 0.0
							CHANNELS 6 Xposition Yposition Zposition Zrotation Xrotation Yrotation 
							JOINT Hand_L
							{
								OFFSET 22.2916 0.0 0.0
								CHANNELS 6 Xposition Yposition Zposition Zrotation Xrotation Yrotation 
								End Site
								{
									OFFSET 0.0 0.0 0.0
								}
							}
						}
					}
				}
				JOINT Shoulder_R
				{
					OFFSET 12.9945 -0.242716 -4.98039
					CHANNELS 6 Xposition Yposition Zposition Zrotation Xrotation Yrotation 
					JOINT UpperArm_R
					{
						OFFSET -5.34813 0.0 0.0
						CHANNELS 6 Xposition Yposition Zposition Zrotation Xrotation Yrotation 
						JOINT LowerArm_R
						{
							OFFSET -24.3289 0.000322201 0.0
							CHANNELS 6 Xposition Yposition Zposition Zrotation Xrotation Yrotation 
							JOINT Hand_R
							{
								OFFSET -22.2915 -0.000108084 0.0
								CHANNELS 6 Xposition Yposition Zposition Zrotation Xrotation Yrotation 
								End Site
								{
									OFFSET 0.0 0.0 0.0
								}
							}
						}
					}
				}
			}
		}
		JOINT UpperLeg_L
		{
			OFFSET -2.19248 -6.46944 0.0
			CHANNELS 6 Xposition Yposition Zposition Zrotation Xrotation Yrotation 
			JOINT LowerLeg_L
			{
				OFFSET 39.0811 0.0 -1.23785e-05
				CHANNELS 6 Xposition Yposition Zposition Zrotation Xrotation Yrotation 
				JOINT Foot_L
				{
					OFFSET 40.9854 0.0 -1.26872e-05
					CHANNELS 6 Xposition Yposition Zposition Zrotation Xrotation Yrotation 
					JOINT Toes_L
					{
						OFFSET 11.7543 0.0 0.0
						CHANNELS 6 Xposition Yposition Zposition Zrotation Xrotation Yrotation 
						End Site
						{
							OFFSET 0.0 0.0 0.0
						}
					}
				}
			}
		}
		JOINT UpperLeg_R
		{
			OFFSET -2.19251 6.46944 0.0
			CHANNELS 6 Xposition Yposition Zposition Zrotation Xrotation Yrotation 
			JOINT LowerLeg_R
			{
				OFFSET -39.0811 -0.00228153 -0.0401928
				CHANNELS 6 Xposition Yposition Zposition Zrotation Xrotation Yrotation 
				JOINT Foot_R
				{
					OFFSET -40.9854 0.0 0.0
					CHANNELS 6 Xposition Yposition Zposition Zrotation Xrotation Yrotation 
					JOINT Toes_R
					{
						OFFSET -11.7543 0.0 0.0
						CHANNELS 6 Xposition Yposition Zposition Zrotation Xrotation Yrotation 
						End Site
						{
							OFFSET 0.0 0.0 0.0
						}
					}
				}
			}
		}
	}
}
MOTION
Frames:	7
Frame Time:	0.0333333
0.000000 0.000000 0.000000 0.000000 0.000000 -0.000000 3.067970 90.999300 1.859540 91.104700 -6.159510 11.090500 15.735700 0.000005 -0.000001 91.453200 83.161200 -93.463000 8.984550 -0.406207 -0.000000 5.917040 0.378327 -4.034540 16.377300 -0.000001 -0.000001 28.629200 -4.153590 -8.096870 6.456720 -0.000001 -0.000000 10.704000 -3.026860 -9.191260 12.994200 -0.242716 4.980390 -86.691600 -6.627140 -63.393700 5.348090 -0.000007 -0.000001 -59.821900 -56.463200 -77.674600 24.328600 0.000019 0.000005 13.581200 17.588900 -38.640000 22.291600 -0.000001 0.000005 15.825200 5.216040 2.313810 12.994500 -0.242716 -4.980390 92.171100 -6.455270 -71.365300 -5.348130 -0.000001 -0.000004 -45.002800 -52.519100 -64.928700 -24.328900 0.000322 -0.000009 0.890015 1.112750 -38.692900 -22.291500 -0.000108 -0.000004 23.405300 5.445020 -4.462260 -2.192480 -6.469440 -0.000000 -177.864000 -17.922500 4.611250 39.081100 -0.000007 -0.000012 -0.089424 0.174255 27.166000 40.985400 -0.000006 -0.000013 3.618510 6.209140 -70.972800 11.754300 -0.000000 0.000003 -0.000199 -0.001842 -16.647100 -2.192510 6.469440 -0.000001 169.070000 18.073700 -176.319000 -39.081100 -0.002282 -0.040193 -0.148214 0.278108 28.582500 -40.985400 0.000008 0.000006 2.251490 15.483900 -70.614400 -11.754300 -0.000006 -0.000006 -0.001922 -0.027741 -17.701100
0.000000 0.000000 0.000000 0.000000 0.000000 -0.000000 3.209540 90.979800 1.874920 91.219000 -6.168860 11.132500 15.735700 0.000005 -0.000001 91.633200 83.213400 -93.705100 8.984550 -0.406207 -0.000000 5.812750 0.421105 -4.160480 16.377300 -0.000001 -0.000001 28.525700 -4.063430 -8.148110 6.456720 -0.000001 -0.000000 10.766200 -2.911240 -9.192830 12.994200 -0.242716 4.980390 -86.661800 -6.689560 -63.402100 5.348090 -0.000007 -0.000001 -59.014300 -55.260200 -78.347300 24.328600 0.000019 0.000005 13.724400 17.277700 -39.430400 22.291600 -0.000001 0.000005 15.575600 5.227350 2.023590 12.994500 -0.242716 -4.980390 92.181700 -6.543250 -71.514100 -5.348130 -0.000001 -0.000004 -44.992200 -51.931700 -65.685500 -24.328900 0.000322 -0.000009 0.869729 1.062840 -39.332400 -22.291500 -0.000108 -0.000004 23.442000 5.445370 -4.474840 -2.192480 -6.469440 -0.000000 -178.081000 -17.935400 4.648310 39.081100 -0.000007 -0.000012 -0.086495 0.168589 27.160300 40.985400 -0.000006 -0.000013 3.712570 6.153180 -71.004000 11.754300 -0.000000 0.000003 -0.000201 -0.001856 -16.647600 -2.192510 6.469440 -0.000001 168.890000 17.944400 -176.387000 -39.081100 -0.002282 -0.040193 -0.142055 0.265080 28.738800 -40.985400 0.000008 0.000006 2.259490 15.413300 -70.686900 -11.754300 -0.000006 -0.000006 -0.001823 -0.026476 -17.649700
0.000000 0.000000 0.000000 0.000000 0.000000 -0.000000 3.336330 90.949300 1.894940 91.280400 -6.192660 11.201200 15.735700 0.000005 -0.000001 91.834600 83.268600 -93.938600 8.984550 -0.406207 -0.000000 5.702010 0.467757 -4.226450 16.377300 -0.000001 -0.000001 28.419500 -3.984140 -8.193370 6.456720 -0.000001 -0.000000 10.694000 -2.848290 -9.229200 12.994200 -0.242716 4.980390 -86.655300 -6.725550 -63.479700 5.348090 -0.000007 -0.000001 -58.323000 -53.999500 -79.339800 24.328600 0.000019 0.000005 13.735200 16.842000 -40.151600 22.291600 -0.000001 0.000005 15.333600 5.236160 1.795490 12.994500 -0.242716 -4.980390 92.216700 -6.673220 -71.577100 -5.348130 -0.000001 -0.000004 -45.176900 -51.192000 -66.931900 -24.328900 0.000322 -0.000009 0.948550 1.143050 -39.724300 -22.291500 -0.000108 -0.000004 23.402400 5.447450 -4.548920 -2.192480 -6.469440 -0.000000 -178.190000 -18.052100 4.681080 39.081100 -0.000007 -0.000012 -0.085009 0.165014 27.255900 40.985400 -0.000006 -0.000013 3.818990 6.164430 -71.090300 11.754300 -0.000000 0.000003 -0.000207 -0.001905 -16.649400 -2.192510 6.469440 -0.000001 168.749000 17.800200 -176.417000 -39.081100 -0.002282 -0.040193 -0.138360 0.256605 28.902000 -40.985400 0.000008 0.000006 2.224060 15.385500 -70.760900 -11.754300 -0.000006 -0.000006 -0.001750 -0.025545 -17.611800
0.000000 0.000000 0.000000 0.000000 0.000000 -0.000000 3.471210 90.930200 1.906920 91.360600 -6.224540 11.232400 15.735700 0.000005 -0.000001 91.966600 83.334300 -94.113700 8.984550 -0.406207 -0.000000 5.570720 0.497462 -4.313460 16.377300 -0.000001 -0.000001 28.262900 -3.985040 -8.290840 6.456720 -0.000001 -0.000000 10.637900 -2.832240 -9.172730 12.994200 -0.242716 4.980390 -86.611100 -6.817220 -63.486800 5.348090 -0.000007 -0.000001 -58.082900 -52.555700 -80.822600 24.328600 0.000019 0.000005 13.825000 16.428200 -41.027700 22.291600 -0.000001 0.000005 15.144100 5.246320 1.529900 12.994500 -0.242716 -4.980390 92.232000 -6.730200 -71.604100 -5.348130 -0.000001 -0.000004 -45.618100 -50.336700 -68.662700 -24.328900 0.000322 -0.000009 0.876416 1.043330 -40.070500 -22.291500 -0.000108 -0.000004 23.307400 5.450610 -4.661370 -2.192480 -6.469440 -0.000000 -178.359000 -18.095500 4.697370 39.081100 -0.000007 -0.000012 -0.081952 0.158952 27.274700 40.985400 -0.000006 -0.000013 3.912000 6.130780 -71.130100 11.754300 -0.000000 0.000003 -0.000197 -0.001830 -16.646600 -2.192510 6.469440 -0.000001 168.622000 17.683900 -176.493000 -39.081100 -0.002282 -0.040193 -0.130752 0.241310 29.053700 -40.985400 0.000008 0.000006 2.295760 15.271800 -70.845000 -11.754300 -0.000006 -0.000006 -0.001968 -0.028320 -17.724700
0.000000 0.000000 0.000000 0.000000 0.000000 -0.000000 3.591950 90.909700 1.928200 91.376600 -6.258260 11.287700 15.735700 0.000005 -0.000001 92.042500 83.407500 -94.208800 8.984550 -0.406207 -0.000000 5.424130 0.513018 -4.351960 16.377300 -0.000001 -0.000001 28.118500 -4.007230 -8.337680 6.456720 -0.000001 -0.000000 10.578200 -2.845950 -9.172730 12.994200 -0.242716 4.980390 -86.571900 -6.901350 -63.502100 5.348090 -0.000007 -0.000001 -57.789200 -50.955200 -82.513600 24.328600 0.000019 0.000005 13.714800 15.827700 -41.821600 22.291600 -0.000001 0.000005 14.933700 5.255720 1.280920 12.994500 -0.242716 -4.980390 92.249000 -6.803200 -71.658200 -5.348130 -0.000001 -0.000004 -46.115100 -49.289300 -70.507900 -24.328900 0.000322 -0.000009 0.785760 0.918717 -40.582700 -22.291500 -0.000108 -0.000004 23.445800 5.455070 -4.821750 -2.192480 -6.469440 -0.000000 -178.426000 -18.186000 4.735290 39.081100 -0.000007 -0.000012 -0.079786 0.154322 27.339500 40.985400 -0.000006 -0.000013 4.011580 6.141290 -71.200200 11.754300 -0.000000 0.000003 -0.000206 -0.001898 -16.649100 -2.192510 6.469440 -0.000001 168.558000 17.570400 -176.512000 -39.081100 -0.002282 -0.040193 -0.118900 0.218870 29.176400 -40.985400 0.000008 0.000006 2.430100 15.173800 -70.944200 -11.754300 -0.000006 -0.000006 -0.001914 -0.027631 -17.696700
0.000000 0.000000 0.000000 0.000000 0.000000 -0.000000 3.717300 90.881200 1.955470 91.442900 -6.259480 11.428000 15.735700 0.000005 -0.000001 92.032900 83.455100 -94.216600 8.984550 -0.406207 -0.000000 5.329170 0.509668 -4.386110 16.377300 -0.000001 -0.000001 27.918900 -3.999130 -8.387670 6.456720 -0.000001 -0.000000 10.608600 -2.869100 -9.294720 12.994200 -0.242716 4.980390 -86.561800 -6.973460 -63.671300 5.348090 -0.000007 -0.000001 -57.022300 -49.345200 -83.944400 24.328600 0.000019 0.000005 13.542000 15.155200 -42.653600 22.291600 -0.000001 0.000005 14.770800 5.266060 1.004410 12.994500 -0.242716 -4.980390 92.273200 -6.913830 -71.749200 -5.348130 -0.000001 -0.000004 -46.146900 -48.063000 -72.152800 -24.328900 0.000322 -0.000009 0.598972 0.684679 -41.237200 -22.291500 -0.000108 -0.000004 23.941100 5.460370 -5.013640 -2.192480 -6.469440 -0.000000 -178.527000 -18.231400 4.861650 39.081100 -0.000007 -0.000012 -0.079182 0.152721 27.405700 40.985400 -0.000006 -0.000013 4.098190 6.112710 -71.276100 11.754300 -0.000000 0.000003 -0.000203 -0.001872 -16.648200 -2.192510 6.469440 -0.000001 168.375000 17.446800 -176.444000 -39.081100 -0.002282 -0.040193 -0.121256 0.221914 29.305500 -40.985400 0.000008 0.000006 2.304930 15.155900 -70.977100 -11.754300 -0.000006 -0.000006 -0.001893 -0.027375 -17.686200
0.000000 0.000000 0.000000 0.000000 0.000000 -0.000000 3.825730 90.850500 1.980110 91.481100 -6.342370 11.588500 15.735700 0.000005 -0.000001 92.151800 83.506900 -94.342800 8.984550 -0.406207 -0.000000 5.225140 0.535021 -4.401510 16.377300 -0.000001 -0.000001 27.688600 -3.971140 -8.539100 6.456720 -0.000001 -0.000000 10.708500 -2.853460 -9.326160 12.994200 -0.242716 4.980390 -86.469500 -7.186860 -63.749100 5.348090 -0.000007 -0.000001 -55.985600 -47.585100 -85.182600 24.328600 0.000019 0.000005 13.649000 14.734500 -43.673700 22.291600 -0.000001 0.000005 14.546000 5.276730 0.715344 12.994500 -0.242716 -4.980390 92.298000 -7.030670 -71.848000 -5.348130 -0.000001 -0.000004 -45.900800 -46.662100 -73.645600 -24.328900 0.000322 -0.000009 0.675683 0.748739 -42.115900 -22.291500 -0.000108 -0.000004 24.079600 5.466320 -5.233390 -2.192480 -6.469440 -0.000000 -178.565000 -18.353700 5.008890 39.081100 -0.000007 -0.000012 -0.076560 0.147081 27.498400 40.985400 -0.000006 -0.000013 4.187900 6.117210 -71.371700 11.754300 -0.000000 0.000003 -0.000206 -0.001898 -16.649100 -2.192510 6.469440 -0.000001 168.263000 17.242000 -176.381000 -39.081100 -0.002282 -0.040193 -0.117065 0.213086 29.461400 -40.985400 0.000008 0.000006 2.314680 15.075200 -71.061800 -11.754300 -0.000006 -0.000006 -0.001880 -0.027201 -17.679200
